<?xml version="1.0" encoding="UTF-8"?>
<svg id="Layer_1" xmlns="http://www.w3.org/2000/svg" version="1.1" viewBox="0 0 800 800">
  <!-- Generator: Adobe Illustrator 29.7.1, SVG Export Plug-In . SVG Version: 2.1.1 Build 8)  -->
  <defs>
    <style>
      .st0 {
        fill: #fff;
      }

      .st1 {
        fill: #333;
      }
    </style>
  </defs>
  <circle class="st1" cx="400" cy="400" r="400"/>
  <path class="st0" d="M538.62,272.66c-25.93-11.9-53.3-20.39-81.42-25.25-.52-.1-1.05.15-1.31.62-3.73,6.77-7.12,13.72-10.16,20.83-30.31-4.6-61.14-4.6-91.45,0-3.05-7.13-6.48-14.08-10.3-20.83-.27-.46-.79-.7-1.31-.62-28.11,4.85-55.47,13.34-81.39,25.25-.22.09-.41.25-.54.46-51.85,77.48-66.05,153.05-59.09,227.66.04.37.23.71.52.94,30.19,22.37,63.97,39.44,99.88,50.49.52.16,1.08-.03,1.41-.46,7.71-10.5,14.54-21.61,20.43-33.23.31-.62.06-1.39-.56-1.7-.04-.02-.09-.04-.13-.06-10.78-4.12-21.21-9.08-31.2-14.84-.61-.36-.81-1.14-.45-1.75.08-.14.2-.27.33-.37,2.09-1.56,4.2-3.2,6.2-4.86.36-.3.86-.36,1.29-.17,65.46,29.89,136.34,29.89,201.02,0,.43-.21.94-.15,1.31.16,2,1.65,4.1,3.3,6.25,4.87.57.42.68,1.23.26,1.79-.1.13-.22.25-.37.33-9.98,5.82-20.43,10.79-31.25,14.84-.66.25-.99.98-.74,1.64.02.05.04.1.06.14,5.98,11.56,12.81,22.66,20.41,33.22.32.45.88.64,1.41.48,35.96-11.02,69.78-28.1,100-50.49.3-.22.49-.55.52-.92,8.34-86.28-13.97-161.23-59.14-227.67-.1-.22-.28-.39-.49-.49h0ZM333.66,455.35c-19.71,0-35.94-18.09-35.94-40.31s15.92-40.31,35.94-40.31,36.27,18.25,35.94,40.31c.02,22.22-15.91,40.31-35.94,40.31ZM466.58,455.35c-19.71,0-35.94-18.09-35.94-40.31s15.92-40.31,35.94-40.31,36.27,18.25,35.94,40.31c0,22.22-15.76,40.31-35.94,40.31Z"/>
</svg>