<?xml version="1.0" encoding="UTF-8"?>
<svg id="Layer_1" xmlns="http://www.w3.org/2000/svg" version="1.1" viewBox="0 0 800 800">
  <!-- Generator: Adobe Illustrator 29.7.1, SVG Export Plug-In . SVG Version: 2.1.1 Build 8)  -->
  <defs>
    <style>
      .st0 {
        fill: #fff;
      }

      .st1 {
        fill: #333;
      }
    </style>
  </defs>
  <path class="st1" d="M750,400c0-193.3-156.7-350-350-350-193.3-.18-350.14,156.38-350.32,349.68-.16,172.43,125.29,319.28,295.62,346.07v-244.6h-88.8v-101.15h88.85v-77.1c0-87.7,52.25-136.2,132.2-136.2,38.3,0,78.35,6.85,78.35,6.85v86.15h-44.15c-43.5,0-57,27-57,54.65v65.65h97.05l-15.5,101.15h-81.6v244.6c170.07-26.93,295.3-173.56,295.3-345.75Z"/>
  <path class="st0" d="M536.25,501.15l15.5-101.15h-97.05v-65.65c0-27.65,13.5-54.65,57-54.65h44.15v-86.2s-40.05-6.85-78.35-6.85c-80,0-132.2,48.5-132.2,136.2v77.15h-88.8v101.15h88.85v244.6c36.24,5.7,73.16,5.7,109.4,0v-244.6h81.5Z"/>
</svg>