<?xml version="1.0" encoding="UTF-8"?>
<svg xmlns="http://www.w3.org/2000/svg" version="1.1" viewBox="0 0 800 800">
  <!-- Generator: Adobe Illustrator 29.7.1, SVG Export Plug-In . SVG Version: 2.1.1 Build 8)  -->
  <defs>
    <style>
      .st0 {
        fill: #333;
      }
    </style>
  </defs>
  <g id="Layer_1" focusable="false">
    <path class="st0" d="M282.97,739.25c-64.45-11.65-125.38-56.43-152.45-112.03-18.8-38.61-26.02-79.43-21.38-120.78,8.6-76.64,48.28-139.4,109.95-173.94,32.51-18.21,79.1-27.25,113.77-22.1l20.05,2.97v61.29s.01,61.29.01,61.29l-18.97-.8c-45.71-1.89-79.77,17.69-97.36,55.91-8.42,18.29-10.55,50.78-4.63,70.58,7.3,24.42,28.88,46.47,54.94,56.14,8.88,3.31,18.48,4.57,34.94,4.51,20.49-.02,24.26-.74,38.66-7.56,20.86-9.86,36.08-24.18,45.03-42.35,5.8-11.78,7.67-19.6,9.48-39.72,1.24-13.78,2.29-126.41,2.34-250.29l.06-225.23h39.07c21.49,0,47.3.69,57.35,1.54l18.28,1.54v9.05c0,21.79,12.74,63.58,25.8,84.64,3.26,5.26,14.66,18.16,25.32,28.67,20.61,20.31,38,30.58,64.77,38.24,7.89,2.29,16.21,5.09,18.49,6.23,2.28,1.14,6.58,2.17,9.56,2.17,2.98.02,7.83.69,10.79,1.49l5.38,1.43v113.69l-10.16-1.09c-54.92-5.93-98.81-20.58-133.85-44.69-17.41-11.98-18.92-12.69-17.27-8.13.59,1.66.17,64.28-.94,139.2-1.92,129.87-2.26,137.1-7.3,155.27-19.37,69.84-62.85,121.7-120.1,143.25-35.01,13.18-79.82,16.75-119.66,9.55l.02.04Z"/>
  </g>
</svg>