<?xml version="1.0" encoding="UTF-8"?>
<svg id="Layer_1" xmlns="http://www.w3.org/2000/svg" version="1.1" viewBox="0 0 800 800">
  <!-- Generator: Adobe Illustrator 29.7.1, SVG Export Plug-In . SVG Version: 2.1.1 Build 8)  -->
  <defs>
    <style>
      .st0 {
        fill: #fff;
      }

      .st1 {
        fill: #333;
      }
    </style>
  </defs>
  <path class="st1" d="M750,362.45c0-158.5-157-287.45-350-287.45S50,203.95,50,362.45c0,142.09,124.52,261.09,292.71,283.6,11.4,2.48,26.91,7.6,30.84,17.46,3.53,8.96,2.31,22.99,1.13,32.03,0,0-4.11,24.99-4.99,30.32-1.52,8.96-7.03,35.03,30.31,19.09,37.36-15.93,201.57-120.11,275-205.65,50.72-56.29,75.01-113.42,75.01-176.85Z"/>
  <path class="st0" d="M328.88,285.61h-24.55c-3.76,0-6.82,3.08-6.82,6.88v154.16c0,3.8,3.06,6.88,6.82,6.88h24.55c3.76,0,6.82-3.08,6.82-6.88v-154.16c0-3.79-3.05-6.88-6.82-6.88Z"/>
  <path class="st0" d="M497.87,285.61h-24.55c-3.76,0-6.82,3.08-6.82,6.88v91.59l-69.89-95.41c-1.29-1.96-3.39-2.93-5.68-3.06h-24.54c-3.76,0-6.82,3.08-6.82,6.88v154.16c0,3.8,3.06,6.88,6.82,6.88h24.54c3.77,0,6.82-3.08,6.82-6.88v-91.56l69.97,95.53c1.26,1.8,3.39,2.91,5.58,2.91h24.55c3.77,0,6.82-3.08,6.82-6.88v-154.16c0-3.79-3.05-6.88-6.82-6.88Z"/>
  <path class="st0" d="M269.71,414.92h-66.71v-122.43c0-3.8-3.05-6.89-6.81-6.89h-24.56c-3.76,0-6.82,3.09-6.82,6.89v154.14c0,3.74,3.04,6.9,6.81,6.9h98.08c3.76,0,6.8-3.09,6.8-6.9v-24.82c0-3.8-3.04-6.89-6.8-6.89Z"/>
  <path class="st0" d="M633.43,324.21c3.77,0,6.8-3.08,6.8-6.89v-24.82c0-3.8-3.04-6.9-6.8-6.9h-98.07c-3.77,0-6.82,3.15-6.82,6.89v154.14c0,3.73,3.04,6.89,6.8,6.89h98.09c3.77,0,6.8-3.09,6.8-6.89v-24.83c0-3.8-3.04-6.89-6.8-6.89h-66.7v-26.06h66.7c3.77,0,6.8-3.09,6.8-6.89v-24.82c0-3.8-3.04-6.9-6.8-6.9h-66.7v-26.05h66.7Z"/>
</svg>